<svg id="Capa_1" data-name="Capa 1" xmlns="http://www.w3.org/2000/svg" viewBox="0 0 255.33 107.55"><title>cancha-bg</title><path d="M116.51,0C55.06.48,4.08,25.47,0,28.38c73.63,24,115.76,66.35,125.34,79.19,52.86-66,130-86.39,130-86.39C210.58,9.23,178-.42,116.51,0ZM228.43,16.5a200.05,200.05,0,0,0-40.05,8.59c-.42-.26-19.7-12.43-50.27-21.74C164.77,4.54,193.8,9,228.43,16.5ZM116.32,3.11a247.18,247.18,0,0,1,29.56,8.27c-9.26,1.64-24.82,3.49-36.2.16-7.05-2.06-10.43-4.89-12-7.34C103.82,3.63,110,3.27,116.32,3.11ZM92.1,4.77c1.67,4,5.88,8.8,16.11,11.79a61,61,0,0,0,16.71,2.08A134.8,134.8,0,0,0,155,14.83l0-.07a217.89,217.89,0,0,1,26.88,12.59A175.13,175.13,0,0,0,142.55,48a32.58,32.58,0,0,0-17.18-9.16c-12.79-2.33-24.2,5.19-28.23,8.27C67.91,29.55,45,21.86,30.7,18.49A309.94,309.94,0,0,1,92.1,4.77Zm46.12,46.38A201.43,201.43,0,0,0,122.61,64c-7.16-5.16-14-9.77-20.62-13.88,4.37-3,13.13-7.77,22.44-6.08A27.5,27.5,0,0,1,138.22,51.15ZM125.65,97.38C91.67,55.07,8,27.25,8,27.25c4.63-1.77,8.17-3.78,12.65-5.35C35,24.2,71.7,33.36,121.26,69.49L123,70.76l1.58-1.47c42.69-39.61,86.63-47.34,121-48.94l4.26,1C207.33,32.76,169.73,50.29,125.65,97.38Z" transform="translate(0 -0.01)" style="fill:#f0f0f0"/></svg>